Coordinates
version=1
nRows=14
nColumns=63
inDegrees=yes

Units are S.I. units (second, meters, Newtons, ...)
If the header above contains a line with 'inDegrees', this indicates whether rotational values are in degrees (yes) or radians (no).

endheader
time	pelvis_tilt	pelvis_list	pelvis_rotation	pelvis_tx	pelvis_ty	pelvis_tz	hip_flexion_r	hip_adduction_r	hip_rotation_r	knee_angle_r	knee_angle_r_beta	ankle_angle_r	subtalar_angle_r	mtp_angle_r	hip_flexion_l	hip_adduction_l	hip_rotation_l	knee_angle_l	knee_angle_l_beta	ankle_angle_l	subtalar_angle_l	mtp_angle_l	L5_S1_Flex_Ext	L5_S1_Lat_Bending	L5_S1_axial_rotation	L4_L5_Flex_Ext	L4_L5_Lat_Bending	L4_L5_axial_rotation	L3_L4_Flex_Ext	L3_L4_Lat_Bending	L3_L4_axial_rotation	L2_L3_Flex_Ext	L2_L3_Lat_Bending	L2_L3_axial_rotation	L1_L2_Flex_Ext	L1_L2_Lat_Bending	L1_L2_axial_rotation	L1_T12_Flex_Ext	L1_T12_Lat_Bending	L1_T12_axial_rotation	Abs_r3	Abs_r2	Abs_r1	Abs_t1	Abs_t2	neck_flexion	neck_bending	neck_rotation	arm_flex_r	arm_add_r	arm_rot_r	elbow_flex_r	pro_sup_r	wrist_flex_r	wrist_dev_r	arm_flex_l	arm_add_l	arm_rot_l	elbow_flex_l	pro_sup_l	wrist_flex_l	wrist_dev_l
1.660000	-5.687226	-6.992556	78.866748	0.184422	0.863820	0.636785	9.774050	-10.714526	10.446949	21.703600	0.378799	41.373805	1.279254	0.000000	7.583060	4.884053	-14.255518	18.130078	0.316430	41.426804	17.961922	0.000000	-0.326495	-1.357442	2.340143	-0.606335	-1.805398	2.486402	-0.536399	-3.300484	2.486402	-0.373152	-3.300484	2.047625	-0.303184	-2.768095	1.901366	-0.186560	-2.102677	1.755107	-2.332124	-15.355654	13.015173	0.000000	0.000000	26.942190	6.774999	-12.714381	6.899776	-8.879366	91.354083	14.808718	16.679393	-9.342844	-14.245720	12.688293	-14.355481	173.345510	3.463924	26.144351	-7.119458	0.758984
1.680000	-5.452816	-6.928829	78.960823	0.182161	0.861300	0.638204	10.797642	-10.456556	10.407490	23.786293	0.415149	42.127718	0.065794	0.000000	8.699940	4.497509	-14.944717	20.429250	0.356558	42.522840	18.443151	0.000000	-0.362656	-1.320155	2.189389	-0.673489	-1.755806	2.326226	-0.595808	-3.209825	2.326226	-0.414480	-3.209825	1.915715	-0.336762	-2.692060	1.778878	-0.207222	-2.044920	1.642042	-2.590416	-14.933857	12.176724	0.000000	0.000000	26.807847	7.390649	-11.743625	7.527817	-8.659606	95.417725	14.149845	12.507003	-8.452279	-14.088619	12.843123	-14.173683	174.829213	3.840596	27.127495	-7.303300	0.927740
1.700000	-5.035332	-6.892368	79.265342	0.179560	0.858834	0.639582	11.584523	-10.062622	10.166867	25.491410	0.444909	42.664159	-1.253903	0.000000	9.717652	3.991407	-15.027293	22.489402	0.392514	43.424217	18.603592	0.000000	-0.396807	-1.256303	1.957480	-0.736911	-1.670883	2.079822	-0.651915	-3.054575	2.079822	-0.453511	-3.054575	1.712795	-0.368475	-2.561853	1.590452	-0.226736	-1.946014	1.468110	-2.834356	-14.211552	10.886916	0.000000	0.000000	26.667425	7.796125	-10.822420	8.101769	-8.497970	99.473352	13.461566	8.856405	-7.554034	-13.811003	12.863606	-13.969591	175.736634	4.222522	27.700512	-7.477649	1.049958
1.720000	-4.474926	-6.854464	79.742191	0.176715	0.856552	0.640758	12.085188	-9.575997	9.748323	26.768136	0.467192	43.008533	-2.629183	0.000000	10.559958	3.410721	-14.782448	24.221723	0.422749	44.161295	18.818890	0.000000	-0.429534	-1.171331	1.653091	-0.797688	-1.557870	1.756409	-0.705681	-2.847973	1.756409	-0.490914	-2.847973	1.446454	-0.398865	-2.388577	1.343136	-0.245436	-1.814391	1.239818	-3.068118	-13.250326	9.193995	0.000000	0.000000	26.514104	8.010587	-9.971806	8.531890	-8.371251	103.098279	12.750027	6.109242	-6.662228	-13.388592	12.717239	-13.768179	176.138947	4.596048	27.474275	-7.598373	1.153861
1.740000	-3.796185	-6.808824	80.341538	0.173726	0.854549	0.641597	12.282497	-9.017442	9.222675	27.580228	0.481366	43.162121	-4.081494	0.000000	11.180683	2.788510	-14.021748	25.558493	0.446080	44.669121	18.794893	0.000000	-0.458619	-1.069001	1.293168	-0.851701	-1.421772	1.373991	-0.753465	-2.599170	1.373991	-0.524156	-2.599170	1.131522	-0.425874	-2.179907	1.050699	-0.262055	-1.655883	0.969876	-3.275869	-12.092756	7.192214	0.000000	0.000000	26.340516	8.029860	-9.272024	8.792242	-8.294043	106.500189	12.004474	4.060042	-5.852768	-12.875128	12.381095	-13.600537	175.547301	4.973548	26.753924	-7.654962	1.244297
1.760000	-3.058027	-6.737215	81.007086	0.170703	0.852930	0.642038	12.191603	-8.442124	8.640414	27.969379	0.488158	43.155662	-5.602061	0.000000	11.540951	2.194928	-12.748615	26.452828	0.461689	44.927915	18.467631	0.000000	-0.484700	-0.957613	0.896653	-0.900136	-1.273626	0.952693	-0.796313	-2.328341	0.952693	-0.553963	-2.328341	0.784571	-0.450092	-1.952765	0.728530	-0.276957	-1.483343	0.672489	-3.462160	-10.832712	4.986913	0.000000	0.000000	26.148420	7.898671	-8.756731	8.860208	-8.253464	109.555322	11.234256	2.909284	-5.194881	-12.274880	11.875413	-13.499246	173.905427	5.373205	25.464576	-7.633845	1.323416
1.780000	-2.311541	-6.662273	81.639707	0.167772	0.851737	0.642239	11.973737	-7.920056	7.360006	28.126451	0.490899	43.201758	-6.225112	0.000000	11.734809	1.663223	-11.621007	27.011999	0.471448	45.090316	18.489712	0.000000	-0.505694	-0.844014	0.488366	-0.939125	-1.122539	0.518889	-0.830805	-2.052136	0.518889	-0.577958	-2.052136	0.427321	-0.469588	-1.721114	0.396798	-0.288954	-1.307378	0.366275	-3.612125	-9.547658	2.716147	0.000000	0.000000	25.955601	7.614661	-8.475819	8.868799	-8.276504	113.210321	10.393081	1.856275	-4.781310	-11.778117	11.254573	-13.480876	171.184985	5.808954	23.865056	-7.572184	1.367492
1.800000	-1.611017	-6.591827	82.192690	0.165027	0.850989	0.642247	11.692206	-7.483964	5.902975	28.117756	0.490747	43.162894	-6.629233	0.000000	11.807166	1.231690	-10.506185	27.290698	0.476313	45.153696	18.539821	0.000000	-0.521359	-0.735688	0.085840	-0.968216	-0.978465	0.091205	-0.856541	-1.788752	0.091205	-0.595861	-1.788752	0.075110	-0.484134	-1.500215	0.069745	-0.297905	-1.139581	0.064380	-3.724016	-8.322252	0.477414	0.000000	0.000000	25.793087	7.220005	-8.420422	8.750013	-8.325663	116.741442	9.556136	2.358411	-4.728227	-11.154139	10.569589	-13.549441	167.671964	6.258777	21.820349	-7.458084	1.342198
1.820000	-0.995573	-6.537687	82.683281	0.162465	0.850694	0.642122	11.392357	-7.174726	4.246012	27.992355	0.488559	43.023185	-6.834090	0.000000	11.818158	0.921721	-9.353517	27.370189	0.477700	45.135654	18.507796	0.000000	-0.532848	-0.638035	-0.306186	-0.989551	-0.848586	-0.325323	-0.875415	-1.551317	-0.325323	-0.608992	-1.551317	-0.267913	-0.494802	-1.301080	-0.248776	-0.304469	-0.988315	-0.229639	-3.806078	-7.217574	-1.702914	0.000000	0.000000	25.687430	6.735835	-8.615157	8.479961	-8.391425	119.821197	8.764492	4.548160	-5.035010	-10.339363	9.880219	-13.696176	163.676750	6.686186	19.564879	-7.294228	1.236657
1.840000	-0.528624	-6.538482	83.025766	0.160368	0.850827	0.641941	11.189598	-7.000857	2.686259	27.824305	0.485626	42.735013	-7.133989	0.000000	11.831880	0.745762	-8.391279	27.287134	0.476250	45.058318	18.516703	0.000000	-0.533333	-0.561487	-0.668533	-0.990453	-0.746778	-0.710316	-0.876213	-1.365199	-0.710316	-0.609546	-1.365199	-0.584966	-0.495253	-1.144984	-0.543183	-0.304747	-0.869743	-0.501400	-3.809545	-6.351652	-3.718180	0.000000	0.000000	25.647876	6.221992	-9.151824	8.371561	-8.246851	125.711777	7.527735	5.560767	-5.469829	-9.638815	9.214241	-13.943275	159.780678	7.033637	17.325824	-7.129220	1.093482
1.860000	-0.228874	-6.589640	83.197764	0.158779	0.851321	0.641767	11.112478	-6.967563	1.237389	27.654039	0.482654	42.328635	-7.513701	0.000000	11.863964	0.700117	-7.622204	27.084708	0.472717	44.963879	18.506722	0.000000	-0.525492	-0.508033	-0.990644	-0.975892	-0.675684	-1.052559	-0.863331	-1.235232	-1.052559	-0.600585	-1.235232	-0.866813	-0.487972	-1.035982	-0.804898	-0.300266	-0.786944	-0.742983	-3.753538	-5.746975	-5.509663	0.000000	0.000000	25.676726	5.681221	-10.037013	8.186899	-8.004928	131.959762	6.190454	7.506954	-6.369711	-8.745045	8.614722	-14.259355	156.588806	7.273851	15.375004	-6.980272	0.987981
1.880000	-0.117160	-6.687711	83.216660	0.157697	0.852101	0.641662	11.183009	-7.108132	-0.184045	27.527182	0.480440	41.874988	-7.855348	0.000000	11.932078	0.796570	-7.026445	26.800492	0.467757	44.877472	18.462206	0.000000	-0.511217	-0.480409	-1.276337	-0.949381	-0.638944	-1.356108	-0.839878	-1.168066	-1.356108	-0.584270	-1.168066	-1.116795	-0.474716	-0.979649	-1.037024	-0.292109	-0.744153	-0.957253	-3.651571	-5.434479	-7.098604	0.000000	0.000000	25.765852	5.143636	-11.252260	7.925833	-7.666757	138.513487	4.782750	9.591710	-7.657130	-7.901142	8.078594	-14.639664	154.042003	7.402840	14.257403	-6.893996	0.991545
1.900000	-0.202748	-6.822096	83.058308	0.157239	0.853089	0.641656	11.409659	-7.385356	-1.384748	27.477196	0.479568	41.381060	-8.370237	0.000000	12.031883	1.024862	-6.650547	26.453648	0.461703	44.811021	18.415859	0.000000	-0.490223	-0.480775	-1.520708	-0.910394	-0.639431	-1.615752	-0.805388	-1.168957	-1.615752	-0.560276	-1.168957	-1.330619	-0.455221	-0.980397	-1.235575	-0.280114	-0.744721	-1.140531	-3.501616	-5.438624	-8.457721	0.000000	0.000000	25.901871	4.661544	-12.764890	7.617726	-7.214858	145.463078	3.353770	11.095717	-9.046767	-7.336554	7.580320	-15.088842	152.371956	7.387872	13.904029	-6.903110	1.114687
1.920000	-0.484612	-6.983070	82.701509	0.157403	0.854206	0.641792	11.809472	-7.801715	-2.385873	27.545183	0.480754	40.865228	-8.964784	0.000000	12.159016	1.380604	-6.508085	26.067046	0.454956	44.738071	18.366147	0.000000	-0.463921	-0.508027	-1.720249	-0.861548	-0.675676	-1.827765	-0.762176	-1.235217	-1.827765	-0.530215	-1.235217	-1.505218	-0.430797	-1.035969	-1.397702	-0.265084	-0.786934	-1.290187	-3.313741	-5.746904	-9.567509	0.000000	0.000000	26.073259	4.227333	-14.480548	7.286673	-6.776676	151.141727	2.208438	12.506432	-10.327624	-7.071849	7.113658	-15.597292	151.269857	7.222312	14.444398	-7.003897	1.370045
